<svg width="64" height="64" viewBox="0 0 64 64" fill="none" xmlns="http://www.w3.org/2000/svg">
<g filter="url(#filter0_ii)">
<path d="M11.1273 22.6904L8.34982 21.5564L8.34982 21.5564L11.1273 22.6904ZM21.4855 11.5558L22.8168 14.2442L21.4855 11.5558ZM36.6199 10.066L35.8383 12.9624L36.6199 10.066ZM7.00767 35.6099C7.33227 37.2347 8.91252 38.2886 10.5373 37.964C12.162 37.6394 13.216 36.0592 12.8914 34.4344L7.00767 35.6099ZM13.9047 23.8243C15.6084 19.6513 18.7777 16.2445 22.8168 14.2442L20.1541 8.86743C14.8042 11.5168 10.6063 16.0293 8.34982 21.5564L13.9047 23.8243ZM22.8168 14.2442C26.8559 12.244 31.4867 11.7881 35.8383 12.9624L37.4014 7.16958C31.6376 5.61426 25.5041 6.21805 20.1541 8.86743L22.8168 14.2442ZM35.8383 12.9624C40.1899 14.1366 43.9627 16.8601 46.4474 20.6207L51.4534 17.3132C48.1625 12.3322 43.1653 8.7249 37.4014 7.16958L35.8383 12.9624ZM12.8914 34.4344C12.1839 30.8933 12.5258 27.2019 13.9047 23.8243L8.34982 21.5564C6.52328 26.0304 6.07063 30.9197 7.00767 35.6099L12.8914 34.4344Z" fill="white"/>
<path d="M42.763 21.2405L51.1319 20.5048C51.682 20.4564 52.0888 19.9712 52.0405 19.421L51.3831 11.944" stroke="white" stroke-width="6" stroke-linecap="round"/>
<path d="M52.1828 41.097L54.9602 42.2309L54.9602 42.2309L52.1828 41.097ZM41.8246 52.2315L40.4932 49.5431L41.8246 52.2315ZM26.6902 53.7214L27.4718 50.825L26.6902 53.7214ZM56.3024 28.1774C55.9778 26.5527 54.3975 25.4987 52.7728 25.8233C51.148 26.1479 50.0941 27.7282 50.4187 29.3529L56.3024 28.1774ZM49.4053 39.9631C47.7017 44.136 44.5324 47.5429 40.4932 49.5431L43.1559 54.9199C48.5059 52.2705 52.7037 47.7581 54.9602 42.2309L49.4053 39.9631ZM40.4932 49.5431C36.4541 51.5434 31.8234 51.9992 27.4718 50.825L25.9086 56.6178C31.6725 58.1731 37.806 57.5693 43.1559 54.9199L40.4932 49.5431ZM27.4718 50.825C23.1201 49.6507 19.3473 46.9273 16.8627 43.1666L11.8566 46.4741C15.1476 51.4552 20.1448 55.0625 25.9086 56.6178L27.4718 50.825ZM50.4187 29.3529C51.1261 32.8941 50.7843 36.5854 49.4053 39.9631L54.9602 42.2309C56.7868 37.7569 57.2394 32.8677 56.3024 28.1774L50.4187 29.3529Z" fill="white"/>
<path d="M20.5476 42.5459L12.1787 43.2816C11.6285 43.33 11.2217 43.8152 11.2701 44.3653L11.9274 51.8423" stroke="white" stroke-width="6" stroke-linecap="round"/>
<path d="M26.3359 32.044L29.0825 34.992C29.478 35.4165 30.1504 35.4165 30.5459 34.992L36.3359 28.7773" stroke="white" stroke-width="5" stroke-linecap="round"/>
</g>
<defs>
<filter id="filter0_ii" x="0" y="-1" width="66" height="67" filterUnits="userSpaceOnUse" color-interpolation-filters="sRGB">
<feFlood flood-opacity="0" result="BackgroundImageFix"/>
<feBlend mode="normal" in="SourceGraphic" in2="BackgroundImageFix" result="shape"/>
<feColorMatrix in="SourceAlpha" type="matrix" values="0 0 0 0 0 0 0 0 0 0 0 0 0 0 0 0 0 0 127 0" result="hardAlpha"/>
<feOffset dx="2" dy="2"/>
<feGaussianBlur stdDeviation="1.5"/>
<feComposite in2="hardAlpha" operator="arithmetic" k2="-1" k3="1"/>
<feColorMatrix type="matrix" values="0 0 0 0 0 0 0 0 0 0 0 0 0 0 0 0 0 0 0.47 0"/>
<feBlend mode="normal" in2="shape" result="effect1_innerShadow"/>
<feColorMatrix in="SourceAlpha" type="matrix" values="0 0 0 0 0 0 0 0 0 0 0 0 0 0 0 0 0 0 127 0" result="hardAlpha"/>
<feOffset dy="-1"/>
<feGaussianBlur stdDeviation="0.5"/>
<feComposite in2="hardAlpha" operator="arithmetic" k2="-1" k3="1"/>
<feColorMatrix type="matrix" values="0 0 0 0 1 0 0 0 0 1 0 0 0 0 1 0 0 0 0.5 0"/>
<feBlend mode="normal" in2="effect1_innerShadow" result="effect2_innerShadow"/>
</filter>
</defs>
</svg>
