<svg width="62" height="49" viewBox="0 0 62 49" fill="none" xmlns="http://www.w3.org/2000/svg">
<g filter="url(#filter0_ii)">
<path fill-rule="evenodd" clip-rule="evenodd" d="M31.5 11C33.433 11 35 9.433 35 7.5C35 5.567 33.433 4 31.5 4C29.567 4 28 5.567 28 7.5C28 9.433 29.567 11 31.5 11ZM31.5 15C32.6088 15 33.6613 14.7594 34.6084 14.3276L41.3621 19.1889C40.5039 20.4085 40 21.8954 40 23.5C40 25.3464 40.6672 27.0369 41.7737 28.3437L39.6397 35.058C36.4565 35.4789 34 38.2033 34 41.5015C34 45.0914 36.9101 48.0015 40.5 48.0015C44.0899 48.0015 47 45.0914 47 41.5015C47 39.3146 45.9199 37.3799 44.2641 36.2017L45.9672 30.8432C46.462 30.946 46.9747 31 47.5 31C48.0506 31 48.5873 30.9407 49.1041 30.8281L50.8907 36.4493L51.4174 36.4434C49.9429 37.6349 49 39.4581 49 41.5015C49 45.0914 51.9101 48.0015 55.5 48.0015C59.0899 48.0015 62 45.0914 62 41.5015C62 37.9117 59.0899 35.0015 55.5 35.0015C55.4729 35.0015 55.4458 35.0017 55.4187 35.002L53.2815 28.2778C54.3549 26.9803 55 25.3155 55 23.5C55 19.3579 51.6421 16 47.5 16C46.6144 16 45.7647 16.1535 44.976 16.4353L37.9297 11.3634C38.6092 10.235 39 8.91315 39 7.5C39 3.35786 35.6421 0 31.5 0C27.3579 0 24 3.35786 24 7.5C24 8.68373 24.2742 9.80341 24.7626 10.799L16.9624 16.4136C16.1911 16.1456 15.3625 16 14.5 16C10.3579 16 7 19.3579 7 23.5C7 25.3153 7.64491 26.9799 8.71812 28.2773L6.58129 35.0005C6.55423 35.0002 6.52713 35 6.5 35C2.91015 35 0 37.9101 0 41.5C0 45.0899 2.91015 48 6.5 48C10.0899 48 13 45.0899 13 41.5C13 39.4566 12.0571 37.6334 10.5826 36.4418L11.1093 36.4478L12.8954 30.828C13.4124 30.9406 13.9493 31 14.5 31C15.0255 31 15.5383 30.946 16.0332 30.8431L17.7359 36.2002C16.0801 37.3783 15 39.313 15 41.5C15 45.0899 17.9101 48 21.5 48C25.0899 48 28 45.0899 28 41.5C28 38.2018 25.5435 35.4774 22.3603 35.0564L20.2267 28.3433C21.3329 27.0366 22 25.3462 22 23.5C22 21.8762 21.4839 20.3729 20.6069 19.1451L27.7553 13.9997C28.8573 14.6359 30.1361 15 31.5 15ZM14.5 27C16.433 27 18 25.433 18 23.5C18 21.567 16.433 20 14.5 20C12.567 20 11 21.567 11 23.5C11 25.433 12.567 27 14.5 27ZM9 41.5C9 42.8807 7.88071 44 6.5 44C5.11929 44 4 42.8807 4 41.5C4 40.1193 5.11929 39 6.5 39C7.88071 39 9 40.1193 9 41.5ZM21.5 44C22.8807 44 24 42.8807 24 41.5C24 40.1193 22.8807 39 21.5 39C20.1193 39 19 40.1193 19 41.5C19 42.8807 20.1193 44 21.5 44ZM51 23.5C51 25.433 49.433 27 47.5 27C45.567 27 44 25.433 44 23.5C44 21.567 45.567 20 47.5 20C49.433 20 51 21.567 51 23.5ZM53 41.5015C53 42.8822 54.1193 44.0015 55.5 44.0015C56.8807 44.0015 58 42.8822 58 41.5015C58 40.1208 56.8807 39.0015 55.5 39.0015C54.1193 39.0015 53 40.1208 53 41.5015ZM40.5 44.0015C39.1193 44.0015 38 42.8822 38 41.5015C38 40.1208 39.1193 39.0015 40.5 39.0015C41.8807 39.0015 43 40.1208 43 41.5015C43 42.8822 41.8807 44.0015 40.5 44.0015Z" fill="white"/>
</g>
<defs>
<filter id="filter0_ii" x="0" y="-1" width="64" height="51.0015" filterUnits="userSpaceOnUse" color-interpolation-filters="sRGB">
<feFlood flood-opacity="0" result="BackgroundImageFix"/>
<feBlend mode="normal" in="SourceGraphic" in2="BackgroundImageFix" result="shape"/>
<feColorMatrix in="SourceAlpha" type="matrix" values="0 0 0 0 0 0 0 0 0 0 0 0 0 0 0 0 0 0 127 0" result="hardAlpha"/>
<feOffset dx="2" dy="2"/>
<feGaussianBlur stdDeviation="1.5"/>
<feComposite in2="hardAlpha" operator="arithmetic" k2="-1" k3="1"/>
<feColorMatrix type="matrix" values="0 0 0 0 0 0 0 0 0 0 0 0 0 0 0 0 0 0 0.47 0"/>
<feBlend mode="normal" in2="shape" result="effect1_innerShadow"/>
<feColorMatrix in="SourceAlpha" type="matrix" values="0 0 0 0 0 0 0 0 0 0 0 0 0 0 0 0 0 0 127 0" result="hardAlpha"/>
<feOffset dy="-1"/>
<feGaussianBlur stdDeviation="0.5"/>
<feComposite in2="hardAlpha" operator="arithmetic" k2="-1" k3="1"/>
<feColorMatrix type="matrix" values="0 0 0 0 1 0 0 0 0 1 0 0 0 0 1 0 0 0 0.5 0"/>
<feBlend mode="normal" in2="effect1_innerShadow" result="effect2_innerShadow"/>
</filter>
</defs>
</svg>
