<svg width="64" height="48" viewBox="0 0 64 48" fill="none" xmlns="http://www.w3.org/2000/svg">
<g filter="url(#filter0_ii)">
<path fill-rule="evenodd" clip-rule="evenodd" d="M40.8793 24.4286C40.8793 34.0603 33.0713 41.8683 23.4396 41.8683C13.808 41.8683 6 34.0603 6 24.4286C6 14.797 13.808 6.98901 23.4396 6.98901C33.0713 6.98901 40.8793 14.797 40.8793 24.4286ZM34.6432 45.0225C31.3147 46.8371 27.4976 47.8683 23.4396 47.8683C10.4943 47.8683 0 37.374 0 24.4286C0 11.4833 10.4943 0.989014 23.4396 0.989014C27.2778 0.989014 30.9005 1.91152 34.0981 3.5469C37.3502 2.2275 40.8715 1.72099 44.3649 2.0768C48.085 2.45571 51.6435 3.79922 54.7019 5.97408C57.7599 8.14864 60.2147 11.0807 61.8384 14.4863C63.462 17.8917 64.2023 21.6607 63.9919 25.4356C63.7815 29.2104 62.6271 32.8713 60.6341 36.0696C58.6408 39.2684 55.8736 41.9002 52.5907 43.709C49.3075 45.518 45.6207 46.4418 41.882 46.3883C39.4002 46.3529 36.9532 45.8876 34.6432 45.0225ZM40.6736 40.3161C41.103 40.3584 41.5347 40.3827 41.9678 40.3889C44.66 40.4274 47.32 39.7626 49.6953 38.4539C52.0709 37.1449 54.0854 35.2337 55.5418 32.8965C56.9984 30.5589 57.8466 27.8755 58.0012 25.1017C58.1558 22.3278 57.6112 19.562 56.4224 17.0684C55.2338 14.5753 53.4424 12.4408 51.2248 10.8638C49.0075 9.2871 46.4365 8.31884 43.7569 8.04592C42.5841 7.92646 41.4063 7.94183 40.2452 8.08882C44.3508 12.3107 46.8793 18.0744 46.8793 24.4286C46.8793 30.5588 44.526 36.1393 40.6736 40.3161Z" fill="white"/>
</g>
<g filter="url(#filter1_ii)">
<path d="M24.8362 13.8833C25.6975 14.0591 26.4885 14.3491 27.2092 14.7534C27.9299 15.1489 28.4309 15.4961 28.7122 15.7949L29.1472 16.2563L26.7215 18.8271C26.616 18.7041 26.4666 18.5547 26.2732 18.3789C26.0886 18.1943 25.6931 17.9526 25.0867 17.6538C24.4802 17.355 23.8562 17.2056 23.2146 17.2056C22.4412 17.2056 21.8172 17.4033 21.3425 17.7988C20.8767 18.1943 20.6438 18.6733 20.6438 19.2358C20.6438 19.8687 20.9602 20.3784 21.593 20.7651C22.2346 21.1431 23.0081 21.4639 23.9133 21.7275C24.8274 21.9912 25.7415 22.2988 26.6555 22.6504C27.5784 23.002 28.3606 23.582 29.0022 24.3906C29.6438 25.1992 29.9646 26.2231 29.9646 27.4624C29.9646 28.9038 29.512 30.1431 28.6067 31.1802C27.7102 32.2173 26.4534 32.894 24.8362 33.2104V35.834H21.3162V33.3027C20.6131 33.1973 19.9363 33.0215 19.2859 32.7754C18.6443 32.5293 18.1126 32.2744 17.6907 32.0107C17.2688 31.7383 16.8953 31.4702 16.5701 31.2065C16.2449 30.9429 16.012 30.7319 15.8714 30.5737L15.6472 30.2969L18.0862 27.8711C18.2092 28.0117 18.3806 28.1963 18.6004 28.4248C18.8289 28.6445 19.3299 28.9434 20.1033 29.3213C20.8767 29.6992 21.6853 29.8882 22.5291 29.8882C23.5047 29.8882 24.2649 29.6597 24.8098 29.2026C25.3635 28.7456 25.6404 28.1655 25.6404 27.4624C25.6404 26.8296 25.3196 26.3198 24.678 25.9331C24.0452 25.5464 23.2674 25.2256 22.3445 24.9707C21.4304 24.707 20.5164 24.3994 19.6023 24.0479C18.697 23.6963 17.9236 23.1162 17.282 22.3076C16.6404 21.499 16.3196 20.4751 16.3196 19.2358C16.3196 17.9438 16.7678 16.7925 17.6643 15.7817C18.5696 14.771 19.7869 14.1294 21.3162 13.8569V11.2598H24.8362V13.8833Z" fill="white"/>
</g>
<defs>
<filter id="filter0_ii" x="0" y="-0.0109863" width="65.0269" height="49.8793" filterUnits="userSpaceOnUse" color-interpolation-filters="sRGB">
<feFlood flood-opacity="0" result="BackgroundImageFix"/>
<feBlend mode="normal" in="SourceGraphic" in2="BackgroundImageFix" result="shape"/>
<feColorMatrix in="SourceAlpha" type="matrix" values="0 0 0 0 0 0 0 0 0 0 0 0 0 0 0 0 0 0 127 0" result="hardAlpha"/>
<feOffset dx="1" dy="2"/>
<feGaussianBlur stdDeviation="1.5"/>
<feComposite in2="hardAlpha" operator="arithmetic" k2="-1" k3="1"/>
<feColorMatrix type="matrix" values="0 0 0 0 0.158333 0 0 0 0 0.158333 0 0 0 0 0.158333 0 0 0 0.47 0"/>
<feBlend mode="normal" in2="shape" result="effect1_innerShadow"/>
<feColorMatrix in="SourceAlpha" type="matrix" values="0 0 0 0 0 0 0 0 0 0 0 0 0 0 0 0 0 0 127 0" result="hardAlpha"/>
<feOffset dy="-1"/>
<feGaussianBlur stdDeviation="0.5"/>
<feComposite in2="hardAlpha" operator="arithmetic" k2="-1" k3="1"/>
<feColorMatrix type="matrix" values="0 0 0 0 0.429167 0 0 0 0 0.429167 0 0 0 0 0.429167 0 0 0 0.5 0"/>
<feBlend mode="normal" in2="effect1_innerShadow" result="effect2_innerShadow"/>
</filter>
<filter id="filter1_ii" x="15.6475" y="10.2598" width="15.3174" height="27.5742" filterUnits="userSpaceOnUse" color-interpolation-filters="sRGB">
<feFlood flood-opacity="0" result="BackgroundImageFix"/>
<feBlend mode="normal" in="SourceGraphic" in2="BackgroundImageFix" result="shape"/>
<feColorMatrix in="SourceAlpha" type="matrix" values="0 0 0 0 0 0 0 0 0 0 0 0 0 0 0 0 0 0 127 0" result="hardAlpha"/>
<feOffset dx="1" dy="2"/>
<feGaussianBlur stdDeviation="1.5"/>
<feComposite in2="hardAlpha" operator="arithmetic" k2="-1" k3="1"/>
<feColorMatrix type="matrix" values="0 0 0 0 0.158333 0 0 0 0 0.158333 0 0 0 0 0.158333 0 0 0 0.47 0"/>
<feBlend mode="normal" in2="shape" result="effect1_innerShadow"/>
<feColorMatrix in="SourceAlpha" type="matrix" values="0 0 0 0 0 0 0 0 0 0 0 0 0 0 0 0 0 0 127 0" result="hardAlpha"/>
<feOffset dy="-1"/>
<feGaussianBlur stdDeviation="0.5"/>
<feComposite in2="hardAlpha" operator="arithmetic" k2="-1" k3="1"/>
<feColorMatrix type="matrix" values="0 0 0 0 0.429167 0 0 0 0 0.429167 0 0 0 0 0.429167 0 0 0 0.5 0"/>
<feBlend mode="normal" in2="effect1_innerShadow" result="effect2_innerShadow"/>
</filter>
</defs>
</svg>
