<svg width="53" height="52" viewBox="0 0 53 52" fill="none" xmlns="http://www.w3.org/2000/svg">
<g filter="url(#filter0_ii)">
<path fill-rule="evenodd" clip-rule="evenodd" d="M35.5535 0.373068C33.8051 -0.501107 31.7774 0.235635 30.8893 1.82579C30.5209 2.4853 30.0543 3.24654 29.5786 3.8941C29.3413 4.21722 29.122 4.4841 28.931 4.68547C28.9128 4.7047 28.8954 4.72275 28.8787 4.73969L28.7862 4.73394L28.7793 4.73351C28.6009 4.72232 28.3648 4.70753 28.1081 4.7009C26.9906 4.67203 25.4686 4.79639 23.7615 5.76797C21.7594 6.90748 19.7519 9.06857 17.7161 12.9126C16.4911 13.1281 15.1608 13.6885 13.8462 14.5996C11.7147 16.0768 9.4692 18.5644 7.39544 22.4817C6.78206 23.0911 4.93159 24.6168 1.87175 25.9281L0.000488281 26.7301L0.406858 28.725L4.0361 46.5413L4.44371 48.5423H6.48579H9.76856C10.6291 50.0226 12.2322 51.0178 14.0678 51.0178C15.181 51.0178 16.2087 50.6517 17.0371 50.0335C17.8653 50.6514 18.8927 51.0171 20.0055 51.0171C21.1193 51.0171 22.1475 50.6507 22.9761 50.0319C23.8047 50.6507 24.8329 51.0171 25.9467 51.0171C27.06 51.0171 28.0879 50.651 28.9163 50.0326C29.7448 50.651 30.7726 51.0171 31.886 51.0171C33.7213 51.0171 35.3242 50.0222 36.1848 48.5423H40.7986V48.5419C43.6841 48.5414 45.6535 47.5818 46.8124 46.0919C47.3514 45.399 47.6252 44.7003 47.7642 44.1639C47.834 43.895 47.8717 43.6602 47.8921 43.4762C47.9024 43.3838 47.9085 43.3029 47.912 43.2353L47.9139 43.1931C47.9148 43.1781 47.9156 43.1622 47.9164 43.1452C47.9194 43.0785 47.9215 42.9962 47.9209 42.9003C47.9197 42.7097 47.9075 42.4592 47.8677 42.1676C47.7943 41.6289 47.6194 40.8976 47.2022 40.1386C47.4786 39.8943 47.726 39.6326 47.9456 39.3581C48.4973 38.6686 48.8086 37.9788 48.9839 37.453C49.0721 37.1885 49.1283 36.9582 49.1642 36.7791C49.1822 36.6892 49.1952 36.6111 49.2046 36.5468C49.2094 36.5147 49.2132 36.4859 49.2163 36.4606L49.2204 36.4255L49.2221 36.4099L49.2228 36.4027L49.2232 36.3992C49.2234 36.3974 49.2235 36.3957 46.7359 36.1469L49.2235 36.3957L49.2264 36.3672L49.2286 36.3386L46.7359 36.1469C49.2286 36.3386 49.2287 36.3372 49.2288 36.3358L49.229 36.3328L49.2295 36.3266L49.2304 36.3128L49.2325 36.2801C49.2339 36.2561 49.2353 36.2276 49.2366 36.1948C49.2391 36.1294 49.241 36.0466 49.2404 35.9489C49.2393 35.7544 49.2288 35.4947 49.1937 35.1901C49.1249 34.5935 48.9535 33.7546 48.5184 32.8842L48.5042 32.8561C48.8654 32.5711 49.1808 32.2516 49.4519 31.9031C49.9908 31.2102 50.2646 30.5114 50.4037 29.975C50.4734 29.7061 50.5112 29.4714 50.5316 29.2873C50.5419 29.1949 50.5479 29.114 50.5514 29.0465L50.5534 29.0043L50.5545 28.9839L50.5558 28.9564C50.5589 28.8897 50.561 28.8073 50.5604 28.7115C50.5591 28.5208 50.547 28.2704 50.5072 27.9788C50.4314 27.4226 50.2473 26.661 49.8002 25.8756C50.1271 25.5753 50.4125 25.2512 50.6586 24.913C51.1901 24.1822 51.4845 23.4596 51.648 22.9203C51.7306 22.6477 51.7828 22.4122 51.8156 22.2314C51.8321 22.1406 51.844 22.0626 51.8524 21.9994L51.8562 21.9698L51.8594 21.9445L51.8627 21.9155L51.8663 21.8821L51.8677 21.8676L51.8683 21.8609L51.8686 21.8577C51.8688 21.8561 51.8689 21.8545 49.3792 21.6281L51.8689 21.8545L51.8698 21.8451L51.8705 21.8357L49.3792 21.6281C51.8705 21.8357 51.8707 21.8342 51.8708 21.8327L51.8711 21.8295L51.8716 21.8228L51.8727 21.8083L51.875 21.7744C51.8766 21.7497 51.8781 21.7207 51.8795 21.6877C51.8823 21.6219 51.8842 21.5396 51.8837 21.4431C51.8825 21.2512 51.8713 20.9968 51.8341 20.6994C51.7611 20.1155 51.5799 19.2998 51.1238 18.4577C50.7169 17.7065 50.1026 16.9581 49.2123 16.3636L51.5514 12.6878C52.6657 10.9369 52.0202 8.60644 50.1639 7.67827L35.5535 0.373068ZM35.5197 44.728V44.7232H32.8554V43.4035C32.8554 42.8681 32.4213 42.4341 31.886 42.4341C31.3506 42.4341 30.9166 42.8681 30.9166 43.4035V44.7232H30.9161H26.9166H26.9161V43.4035C26.9161 42.8681 26.4821 42.4341 25.9467 42.4341C25.4113 42.4341 24.9773 42.8681 24.9773 43.4035V44.7232H24.9749H20.9773H20.9749V43.4035C20.9749 42.8681 20.5409 42.4341 20.0055 42.4341C19.486 42.4341 19.0619 42.8428 19.0373 43.3563L19.0375 43.4035V44.7232H19.0361H15.0375H15.0361V43.4035L15.0363 43.3563C15.0117 42.8428 14.5876 42.4341 14.0681 42.4341C13.5327 42.4341 13.0987 42.8681 13.0987 43.4035V44.7232H10.445V44.7287H13.0984V46.0484C13.0984 46.5838 13.5324 47.0178 14.0678 47.0178C14.5893 47.0178 15.0146 46.6059 15.0363 46.0898L15.0361 46.0477V44.728H19.0361V44.7287H19.0372V46.0484L19.037 46.0893C19.0588 46.6054 19.4841 47.0171 20.0055 47.0171C20.5409 47.0171 20.9749 46.5831 20.9749 46.0477V44.728H20.9773H24.9749H24.9773V46.0477C24.9773 46.5831 25.4113 47.0171 25.9467 47.0171C26.4821 47.0171 26.9161 46.5831 26.9161 46.0477V44.728H26.9166H30.9161H30.9166V46.0477C30.9166 46.5831 31.3506 47.0171 31.886 47.0171C32.4213 47.0171 32.8554 46.5831 32.8554 46.0477V44.728H35.5197ZM36.8554 43.5423H40.7516C40.7667 43.542 40.7819 43.5419 40.7972 43.5419C41.6877 43.5418 42.2062 43.3985 42.4829 43.2799C42.7446 43.1677 42.8372 43.0587 42.8657 43.0221C42.8961 42.9831 42.9117 42.9478 42.9196 42.9246L42.9204 42.915C42.9197 42.8992 42.9178 42.8743 42.9136 42.8431C42.8992 42.7373 42.8662 42.6238 42.8104 42.5294L42.8103 42.5291C42.804 42.5149 42.55 41.9428 40.7974 41.9428C39.4167 41.9428 38.2974 40.8235 38.2974 39.4428C38.2974 38.0621 39.4167 36.9428 40.7974 36.9428C41.0347 36.9428 41.2659 36.9497 41.4909 36.9631C41.5879 36.9517 41.6866 36.9458 41.7867 36.9458C43.418 36.9456 43.9045 36.4056 44.0416 36.2343C44.1459 36.1039 44.2053 35.9739 44.2371 35.8817C44.2351 35.8476 44.2318 35.8077 44.2266 35.7632C44.2027 35.5556 44.1472 35.3221 44.0462 35.1201C43.9555 34.9388 43.8332 34.7881 43.6328 34.6669C43.4278 34.5429 42.9872 34.3574 42.1169 34.3574C40.7362 34.3574 39.6169 33.2381 39.6169 31.8574C39.6169 30.4767 40.7362 29.3574 42.1169 29.3574C42.4148 29.3574 42.7047 29.3695 42.9865 29.3935C43.1325 29.3669 43.283 29.3531 43.4366 29.353C44.3272 29.353 44.8457 29.2096 45.1224 29.091C45.3841 28.9789 45.4767 28.8699 45.5052 28.8333C45.5356 28.7943 45.5512 28.7589 45.5591 28.7358L45.5599 28.7262C45.5592 28.7103 45.5573 28.6855 45.5531 28.6543C45.5386 28.5484 45.5057 28.435 45.4499 28.3405L45.4498 28.3403C45.4435 28.326 45.1895 27.754 43.4369 27.754C42.0562 27.754 40.9369 26.6347 40.9369 25.254C40.9369 23.8733 42.0562 22.754 43.4369 22.754C43.6751 22.754 43.9071 22.7609 44.1329 22.7744C44.2303 22.7629 44.3295 22.757 44.43 22.7569C45.9676 22.7568 46.4418 22.2101 46.6151 21.9718C46.7434 21.7954 46.8202 21.6109 46.8629 21.4699C46.8703 21.4457 46.8763 21.4239 46.881 21.4053C46.8794 21.381 46.8768 21.3521 46.8727 21.3195C46.8529 21.161 46.8073 20.9868 46.7272 20.8389C46.6597 20.7142 46.5579 20.5856 46.3512 20.4702C46.1357 20.3499 45.6797 20.1748 44.8073 20.1687H28.6885L26.6048 25.8514C25.8981 27.7787 24.3678 30.3901 21.4053 31.11C19.5584 31.5588 17.8673 31.2971 16.4822 30.4533C15.1584 29.6468 14.3245 28.4395 13.8445 27.3246C12.9862 25.3311 13.5017 23.3161 13.9176 22.0825C14.0401 21.7194 14.1624 21.3635 14.2845 21.0147C13.4533 22.0338 12.5673 23.3625 11.6757 25.0861L11.5422 25.3443L11.3531 25.5649C10.5584 26.4917 8.62959 28.1382 5.69787 29.6495L8.52788 43.5423H9.09871V43.4035C9.09871 40.659 11.3236 38.4341 14.0681 38.4341C15.181 38.4341 16.2085 38.7999 17.0368 39.4179C17.8651 38.7999 18.8926 38.4341 20.0055 38.4341C21.1193 38.4341 22.1475 38.8005 22.9761 39.4193C23.8047 38.8005 24.8329 38.4341 25.9467 38.4341C27.06 38.4341 28.0879 38.8002 28.9163 39.4186C29.7448 38.8002 30.7726 38.4341 31.886 38.4341C34.6305 38.4341 36.8554 40.659 36.8554 43.4035V43.5423ZM29.2593 4.75205C29.26 4.75261 29.2479 4.75389 29.2206 4.75426C29.2449 4.75168 29.2585 4.7515 29.2593 4.75205ZM33.6083 6.85406C33.9418 6.40002 34.2592 5.92297 34.5479 5.46048L46.4402 11.4066L44.0462 15.1687H27.6408C26.1725 15.1687 24.8602 16.0852 24.3547 17.4638L21.9104 24.1301C21.3928 25.5418 20.718 26.1315 20.2246 26.2514C19.552 26.4149 19.239 26.278 19.0835 26.1832C18.8667 26.0512 18.6232 25.78 18.4369 25.3472C18.4028 25.2683 18.3629 25.1163 18.3867 24.8245C18.4114 24.5206 18.4989 24.1445 18.6555 23.68C21.964 13.868 24.7254 10.9725 26.2347 10.1135C26.8997 9.73496 27.4333 9.68513 27.979 9.69923C28.1348 9.70326 28.2872 9.71248 28.4735 9.72415L28.5007 9.72586C28.6651 9.7362 28.8844 9.74998 29.0982 9.75347C29.4798 9.75971 30.3556 9.76006 31.198 9.25462C32.1922 8.65812 33.0293 7.64239 33.6083 6.85406Z" fill="white"/>
</g>
<defs>
<filter id="filter0_ii" x="0.000488281" y="-0.999512" width="53.099" height="54.0173" filterUnits="userSpaceOnUse" color-interpolation-filters="sRGB">
<feFlood flood-opacity="0" result="BackgroundImageFix"/>
<feBlend mode="normal" in="SourceGraphic" in2="BackgroundImageFix" result="shape"/>
<feColorMatrix in="SourceAlpha" type="matrix" values="0 0 0 0 0 0 0 0 0 0 0 0 0 0 0 0 0 0 127 0" result="hardAlpha"/>
<feOffset dx="1" dy="2"/>
<feGaussianBlur stdDeviation="1.5"/>
<feComposite in2="hardAlpha" operator="arithmetic" k2="-1" k3="1"/>
<feColorMatrix type="matrix" values="0 0 0 0 0.158333 0 0 0 0 0.158333 0 0 0 0 0.158333 0 0 0 0.47 0"/>
<feBlend mode="normal" in2="shape" result="effect1_innerShadow"/>
<feColorMatrix in="SourceAlpha" type="matrix" values="0 0 0 0 0 0 0 0 0 0 0 0 0 0 0 0 0 0 127 0" result="hardAlpha"/>
<feOffset dy="-1"/>
<feGaussianBlur stdDeviation="0.5"/>
<feComposite in2="hardAlpha" operator="arithmetic" k2="-1" k3="1"/>
<feColorMatrix type="matrix" values="0 0 0 0 0.429167 0 0 0 0 0.429167 0 0 0 0 0.429167 0 0 0 0.5 0"/>
<feBlend mode="normal" in2="effect1_innerShadow" result="effect2_innerShadow"/>
</filter>
</defs>
</svg>
