<svg width="38" height="50" viewBox="0 0 38 50" fill="none" xmlns="http://www.w3.org/2000/svg">
<path fill-rule="evenodd" clip-rule="evenodd" d="M23.1478 42.2141C21.4665 49.1836 19.7206 50.278 19 49.9482C18.2794 50.278 16.5335 49.1836 14.8522 42.2141L15.1931 47.9921C13.8295 47.5767 10.9658 45.3863 10.4204 39.9482C10.2688 41.0812 10.0567 43.5963 10.4204 44.5933C9.32186 44.2912 6.89759 42.0781 5.98849 35.6431C5.7991 36.4739 5.51121 38.5207 5.87485 40.0615C3.82938 38.7398 0.420251 34.6008 3.14755 28.6188C2.80664 28.5433 1.92027 28.9814 1.10208 31.3379C0.420251 30.2427 -0.397939 27.1234 1.7839 23.4073C1.5945 23.3696 1.01114 23.6113 0.19295 24.8802C-0.223722 23.8605 -0.238873 20.8696 3.03389 17.0629C2.50359 17.214 1.32935 17.6974 0.874801 18.4224C3.18057 10.3201 10.0278 -4.42333 19 1.27872C27.9722 -4.42333 34.8194 10.3201 37.1252 18.4224C36.6707 17.6974 35.4964 17.214 34.9661 17.0629C38.2389 20.8696 38.2237 23.8605 37.8071 24.8802C36.9889 23.6113 36.4055 23.3696 36.2161 23.4073C38.3979 27.1234 37.5797 30.2427 36.8979 31.3379C36.0797 28.9814 35.1934 28.5433 34.8524 28.6188C37.5797 34.6008 34.1706 38.7398 32.1251 40.0615C32.4888 38.5207 32.2009 36.4739 32.0115 35.6431C31.1024 42.0781 28.6781 44.2912 27.5796 44.5933C27.9433 43.5963 27.7312 41.0812 27.5796 39.9482C27.0342 45.3863 24.1705 47.5767 22.8069 47.9921L23.1478 42.2141ZM22.3463 19.5028C23.4109 18.9784 24.7318 18.3277 26.5405 18.5357C24.8688 18.7942 23.4965 19.4396 22.3988 19.9559C20.7951 20.7102 19.7775 21.1888 19.2689 19.7819C19.2262 19.6967 19.1947 19.5955 19.1799 19.5023C19.1651 19.5955 19.1336 19.6967 19.0908 19.7819C18.5822 21.1888 17.5647 20.7102 15.9609 19.9559C14.8632 19.4396 13.4909 18.7942 11.8193 18.5357C13.6279 18.3277 14.9488 18.9784 16.0134 19.5028C17.2692 20.1214 18.1684 20.5643 19.0908 19.2154C19.1378 19.2154 19.1664 19.2497 19.1799 19.3038C19.1934 19.2497 19.222 19.2154 19.2689 19.2154C20.1914 20.5643 21.0906 20.1214 22.3463 19.5028ZM20.7122 21.3565C20.7689 21.8011 21.7738 22.0399 22.9567 21.8899C24.1397 21.74 25.0526 21.258 24.9959 20.8135C24.9392 20.3689 23.9343 20.1301 22.7514 20.28C21.5685 20.43 20.6555 20.9119 20.7122 21.3565ZM19.1894 32.8107V33.6038H22.3712C24.644 33.6038 24.985 32.924 25.3259 32.131C25.3271 32.1282 25.3288 32.1244 25.3309 32.1197C25.3798 32.0118 25.6572 31.3989 25.4395 30.205C25.2567 29.2026 25.401 28.9279 25.497 28.7451C25.5204 28.7006 25.5409 28.6616 25.5532 28.6188C25.735 27.9844 26.4623 27.4104 26.8032 27.146C27.6214 26.6929 28.1289 25.9753 28.2804 25.6732C29.0759 23.8605 28.2425 22.01 27.8259 21.2548C28.1895 22.433 28.2426 23.8227 28.1668 24.427C28.039 25.4466 27.3713 26.1264 26.9168 26.4663C26.3446 26.7922 25.9745 27.1732 25.8231 27.329C25.8062 27.3465 25.7918 27.3612 25.7804 27.3726C25.144 27.8258 24.8713 28.6566 24.7577 29.072C24.7577 29.072 24.644 29.4119 24.7577 30.205C24.8625 30.9363 24.774 31.2822 24.6705 31.687C24.6617 31.7212 24.6529 31.7558 24.644 31.7911C24.5035 32.3515 24.1895 32.8107 22.3712 32.8107H19.1894ZM19.1894 26.7044V26.1492L19.2119 26.1492L19.256 26.1494H19.2564C19.311 26.1497 19.3732 26.15 19.4167 26.1492C20.0979 26.1366 21.2349 25.7865 22.1713 24.3137C22.3896 23.9206 22.3468 23.5659 21.8183 23.3736L21.5257 23.2941C21.5415 23.2926 21.5611 23.2882 21.5847 23.283C21.7301 23.2505 22.0258 23.1846 22.5103 23.5615C22.928 24.1247 21.8662 26.4721 19.2529 26.699C19.2314 26.7008 19.2103 26.7026 19.1894 26.7044ZM19.1704 33.6038V32.8107H15.9885C14.1703 32.8107 13.8563 32.3515 13.7157 31.7911C13.7069 31.756 13.6981 31.7216 13.6894 31.6876L13.6893 31.6872C13.5858 31.2824 13.4973 30.9363 13.6021 30.205C13.7157 29.4119 13.6021 29.072 13.6021 29.072C13.4884 28.6566 13.2157 27.8258 12.5794 27.3726C12.5679 27.3612 12.5537 27.3465 12.5367 27.329C12.3852 27.1732 12.0152 26.7922 11.443 26.4663C10.9885 26.1264 10.3208 25.4466 10.1929 24.427C10.1172 23.8227 10.1702 22.433 10.5339 21.2548C10.1172 22.01 9.28387 23.8605 10.0794 25.6732C10.2308 25.9753 10.7384 26.6929 11.5566 27.146C11.8975 27.4104 12.6248 27.9844 12.8066 28.6188C12.8189 28.6616 12.8394 28.7006 12.8627 28.7451C12.9588 28.9279 13.1031 29.2026 12.9203 30.205C12.7025 31.3989 12.98 32.0118 13.0288 32.1197C13.031 32.1244 13.0327 32.1282 13.0339 32.131C13.3748 32.924 13.7158 33.6038 15.9885 33.6038H19.1704ZM17.6476 21.3565C17.5909 21.8011 16.586 22.0399 15.403 21.8899C14.2201 21.74 13.3071 21.258 13.3638 20.8135C13.4205 20.3689 14.4254 20.1301 15.6084 20.28C16.7913 20.43 17.7043 20.9119 17.6476 21.3565ZM19.1703 26.7044V26.1492C19.1514 26.1492 19.1284 26.1493 19.1038 26.1494H19.1035C19.0489 26.1497 18.9865 26.15 18.9431 26.1492C18.2619 26.1366 17.1249 25.7865 16.1885 24.3137C15.9701 23.9206 16.013 23.5659 16.5415 23.3736L16.8341 23.2941C16.8183 23.2926 16.7987 23.2882 16.7751 23.283C16.6296 23.2505 16.3339 23.1846 15.8495 23.5615C15.4318 24.1247 16.4935 26.4721 19.1068 26.699C19.1283 26.7008 19.1495 26.7026 19.1703 26.7044Z" fill="#F5F5F5"/>
</svg>
