<svg width="48" height="49" viewBox="0 0 48 49" fill="none" xmlns="http://www.w3.org/2000/svg">
<rect y="0.353516" width="48" height="48" rx="10" fill="#A34A0A"/>
<path fill-rule="evenodd" clip-rule="evenodd" d="M13.6548 12.4068C11.9979 12.4068 10.6548 13.7499 10.6548 15.4068V28.5882C10.6548 30.245 11.9979 31.5882 13.6548 31.5882H19.8919V34.3893C19.8919 36.0461 21.235 37.3893 22.8919 37.3893H34.9278C36.5847 37.3893 37.9278 36.0461 37.9278 34.3893V21.2079C37.9278 19.551 36.5847 18.2079 34.9278 18.2079H28.6907V15.4068C28.6907 13.7499 27.3476 12.4068 25.6907 12.4068H13.6548ZM26.6907 18.2079V15.4068C26.6907 14.8545 26.243 14.4068 25.6907 14.4068H13.6548C13.1025 14.4068 12.6548 14.8545 12.6548 15.4068V28.5882C12.6548 29.1404 13.1025 29.5882 13.6548 29.5882H19.8919V29.5167H21.8919V34.3893C21.8919 34.9416 22.3396 35.3893 22.8919 35.3893H34.9278C35.4801 35.3893 35.9278 34.9416 35.9278 34.3893V21.2079C35.9278 20.6556 35.4801 20.2079 34.9278 20.2079H26.619V18.2079H26.6907ZM29.4718 26.6507L28.6631 28.4028H30.2805L29.4718 26.6507ZM31.9326 28.4028L30.2436 24.7434C29.9397 24.0849 29.0039 24.085 28.7001 24.7434L27.0111 28.4028H26.7894C26.3752 28.4028 26.0394 28.7386 26.0394 29.1528C26.0394 29.4143 26.1732 29.6445 26.376 29.7788L25.5719 31.521C25.3983 31.8971 25.5625 32.3427 25.9386 32.5163C26.3147 32.6898 26.7603 32.5257 26.9338 32.1496L27.9708 29.9028H30.9728L32.0098 32.1496C32.1834 32.5257 32.629 32.6898 33.0051 32.5163C33.3811 32.3427 33.5453 31.8971 33.3717 31.521L32.5676 29.7788C32.7705 29.6445 32.9043 29.4143 32.9043 29.1528C32.9043 28.7386 32.5685 28.4028 32.1543 28.4028H31.9326ZM19.4686 16.4809C19.008 16.4809 18.6347 16.8542 18.6347 17.3148V19.0513H17.0528C16.5355 19.0513 16.1162 19.4705 16.1162 19.9878C16.1162 20.505 16.5355 20.9243 17.0528 20.9243H18.5871C18.0831 23.4572 16.6664 24.3715 16.0559 24.5345C15.6557 24.6413 15.418 25.0524 15.5248 25.4526C15.6317 25.8528 16.0427 26.0906 16.4429 25.9837C17.4136 25.7245 18.6659 24.8252 19.4684 23.0684C20.2709 24.8252 21.5232 25.7245 22.4938 25.9837C22.894 26.0906 23.3051 25.8528 23.4119 25.4526C23.5188 25.0524 23.281 24.6413 22.8808 24.5345C22.2703 24.3715 20.8537 23.4572 20.3496 20.9243H22.3084C22.8257 20.9243 23.245 20.505 23.245 19.9878C23.245 19.4705 22.8257 19.0513 22.3084 19.0513H20.3025V17.3148C20.3025 16.8542 19.9291 16.4809 19.4686 16.4809Z" fill="#FFDB1F"/>
</svg>
