<svg width="16" height="16" viewBox="0 0 16 16" fill="none" xmlns="http://www.w3.org/2000/svg">
<path d="M14.4142 15.3334C6.59355 15.3445 0.658146 9.33795 0.666513 1.58572C0.666513 1.07945 1.07692 0.666748 1.58318 0.666748H4.00259C4.45686 0.666748 4.84277 1.00053 4.90948 1.44988C5.06936 2.52685 5.38291 3.5753 5.84061 4.56323L5.93481 4.76654C6.06579 5.04925 5.97701 5.38514 5.72346 5.56622C4.97419 6.10129 4.68785 7.17834 5.27156 8.01874C6.00405 9.07335 6.92738 9.99649 7.98175 10.7286C8.82211 11.3122 9.89899 11.0259 10.434 10.2768C10.6152 10.0231 10.9513 9.93425 11.2342 10.0653L11.4366 10.159C12.4246 10.6167 13.4731 10.9303 14.5502 11.0901C14.9995 11.1568 15.3332 11.5427 15.3332 11.997V14.4167C15.3332 14.923 14.9218 15.3334 14.4155 15.3334L14.4142 15.3334Z" fill="white"/>
</svg>
