<svg width="48" height="49" viewBox="0 0 48 49" fill="none" xmlns="http://www.w3.org/2000/svg">
<rect y="0.733398" width="48" height="48" rx="10" fill="#134370"/>
<path fill-rule="evenodd" clip-rule="evenodd" d="M30.2721 14.0667H30.2521H30.2183H30.1843H30.1502H30.116H30.0817H30.0472H30.0127H29.978H29.9432H29.9083H29.8732H29.8381H29.8028H29.7674H29.732H29.6964H29.6607H29.6248H29.5889H29.5529H29.5168H29.4805H29.4442H29.4077H29.3712H29.3346H29.2978H29.261H29.2241H29.187H29.1499H29.1127H29.0754H29.038H29.0005H28.9629H28.9252H28.8875H28.8496H28.8117H28.7737H28.7356H28.6974H28.6592H28.6208H28.5824H28.5439H28.5054H28.4667H28.428H28.3892H28.3503H28.3114H28.2724H28.2333H28.1942H28.1549H28.1157H28.0763H28.0369H27.9974H27.9579H27.9183H27.8786H27.8389H27.7991H27.7593H27.7194H27.6795H27.6395H27.5994H27.5593H27.5192H27.479H27.4387H27.3984H27.3581H27.3177H27.2773H27.2368H27.1963H27.1557H27.1151H27.0745H27.0338H26.9931H26.9523H26.9116H26.8707H26.8299H26.789H26.7481H26.7071H26.6662H26.6252H26.5841H26.5431H26.502H26.4609H26.4198H26.3786H26.3375H26.2963H26.2551H26.2138H26.1726H26.1314H26.0901H26.0488H26.0075H25.9662H25.9249H25.8836H25.8422H25.8009H25.7596H25.7182H25.6769H25.6355H25.5941H25.5528H25.5114H25.4701H25.4287H25.3874H25.346H25.3047H25.2634H25.222H25.1807H25.1394H25.0981H25.0568H25.0156H24.9743H24.9331H24.8918H24.8506H24.8094H24.7683H24.7271H24.686H24.6449H24.6038H24.5627H24.5217H24.4807H24.4397H24.3988H24.3578H24.3169H24.2761H24.2353H24.1945H24.1537H24.113H24.0723H24.0317H23.991H23.9505H23.91H23.8695H23.829H23.7886H23.7483H23.708H23.6677H23.6275H23.5873H23.5472H23.5072H23.4672H23.4272H23.3873H23.3475H23.3077H23.268H23.2283H23.1887H23.1491H23.1096H23.0702H23.0309H22.9916H22.9523H22.9132H22.8741H22.8351H22.7961H22.7572H22.7184H22.6797H22.641H22.6024H22.5639H22.5255H22.4871H22.4489H22.4107H22.3726H22.3345H22.2966H22.2587H22.221H22.1833H22.1457H22.1082H22.0708H22.0334H21.9962H21.959H21.922H21.885H21.8482H21.8114H21.7748H21.7382H21.7018H21.6654H21.6291H21.593H21.5569H21.521H21.4852H21.4494H21.4138H21.3783H21.3429H21.3076H21.2725H21.2374H21.2024H21.1676H21.1329H21.0983H21.0639H21.0295H20.9953H20.9612H20.9272H20.8933H20.8596H20.826H20.7925H20.7591H20.7259H20.6928H20.6599H20.627H20.5944H20.5618H20.5294H20.4971H20.4649H20.4329H20.4011H20.3694H20.3378H20.3063H20.275H20.2439H20.2129H20.182H20.1513H20.1208H20.0904H20.0601H20.03H20H19.9703H19.9406H19.9111H19.8818H19.8526H19.8236H19.7948H19.7661H19.7376H19.7092H19.6811H19.653H19.6252H19.5975H19.57H19.5426H19.5154H19.4884H19.4616H19.435H19.4085H19.3822H19.3561H19.3301H19.3043H19.2788H19.2534H19.2281H19.2031H19.1782H19.1536H19.1291H19.1048H19.0807H19.0568H19.0331H19.0096H18.9862H18.9631H18.9401H18.9174H18.8948H18.8725H18.8503H18.8284H18.8066H18.7851H18.7637H18.7426H18.7217H18.701H18.6804H18.6601H18.64H18.6201H18.6005H18.581H18.5618H18.5427H18.5239H18.5053H18.4869H18.4688H18.4508H18.4331H18.4156H18.3984H18.3813H18.3645H18.3479H18.3315H18.3154H18.2995H18.2838H18.2684H18.2531H18.2382H18.2234H18.2089H18.1947H18.1806H18.1668C17.7585 14.0667 17.5187 14.1659 17.3726 14.2634C17.2202 14.365 17.1061 14.5076 17.0196 14.6806C16.9311 14.8576 16.8819 15.0466 16.8563 15.1999C16.844 15.2741 16.8382 15.3338 16.8355 15.3711C16.8342 15.3895 16.8337 15.4019 16.8335 15.4072L16.8335 15.4076V29.5667H26.3335C26.8858 29.5667 27.3335 30.0144 27.3335 30.5667V34.0592L27.3335 34.0596C27.3336 34.0626 27.3338 34.0679 27.3342 34.0753C27.3345 34.0809 27.3349 34.0878 27.3355 34.0957C27.3382 34.133 27.344 34.1927 27.3563 34.2669C27.3819 34.4202 27.4311 34.6092 27.5196 34.7862C27.6061 34.9592 27.7202 35.1018 27.8726 35.2034C28.0187 35.3009 28.2585 35.4001 28.6668 35.4001C29.0752 35.4001 29.315 35.3009 29.4611 35.2034C29.6135 35.1018 29.7276 34.9592 29.8141 34.7862C29.9025 34.6092 29.9518 34.4202 29.9773 34.2669C29.9897 34.1927 29.9955 34.133 29.9981 34.0957C29.9988 34.0868 29.9992 34.0794 29.9995 34.0734C29.9999 34.067 30.0001 34.0624 30.0001 34.0596L30.0002 34.0592V18.9001V15.4001H31.0002C30.0002 15.4001 30.0002 15.3996 30.0002 15.3991L30.0002 15.398L30.0002 15.3957L30.0002 15.3904L30.0004 15.3772C30.0005 15.3673 30.0008 15.355 30.0013 15.3405C30.0023 15.3117 30.004 15.2739 30.0073 15.2286C30.0137 15.1382 30.0261 15.0156 30.0502 14.8711C30.0866 14.653 30.1519 14.3701 30.2721 14.0667ZM14.8335 29.5667V15.4001H15.8335C14.8335 15.4001 14.8335 15.3996 14.8335 15.3991L14.8335 15.398L14.8335 15.3957L14.8335 15.3904L14.8337 15.3772C14.8339 15.3673 14.8341 15.355 14.8346 15.3405C14.8356 15.3117 14.8374 15.2739 14.8406 15.2286C14.847 15.1382 14.8595 15.0156 14.8836 14.8711C14.9309 14.5868 15.0275 14.1926 15.2307 13.7862C15.4359 13.3759 15.7593 12.9352 16.2632 12.5993C16.7733 12.2592 17.4085 12.0667 18.1668 12.0667H18.1806H18.1947H18.2089H18.2234H18.2382H18.2531H18.2684H18.2838H18.2995H18.3154H18.3315H18.3479H18.3645H18.3813H18.3984H18.4156H18.4331H18.4508H18.4688H18.4869H18.5053H18.5239H18.5427H18.5618H18.581H18.6005H18.6201H18.64H18.6601H18.6804H18.701H18.7217H18.7426H18.7637H18.7851H18.8066H18.8284H18.8503H18.8725H18.8948H18.9174H18.9401H18.9631H18.9862H19.0096H19.0331H19.0568H19.0807H19.1048H19.1291H19.1536H19.1782H19.2031H19.2281H19.2534H19.2788H19.3043H19.3301H19.3561H19.3822H19.4085H19.435H19.4616H19.4884H19.5154H19.5426H19.57H19.5975H19.6252H19.653H19.6811H19.7092H19.7376H19.7661H19.7948H19.8236H19.8526H19.8818H19.9111H19.9406H19.9703H20H20.03H20.0601H20.0904H20.1208H20.1513H20.182H20.2129H20.2439H20.275H20.3063H20.3378H20.3694H20.4011H20.4329H20.4649H20.4971H20.5294H20.5618H20.5944H20.627H20.6599H20.6928H20.7259H20.7591H20.7925H20.826H20.8596H20.8933H20.9272H20.9612H20.9953H21.0295H21.0639H21.0983H21.1329H21.1676H21.2024H21.2374H21.2725H21.3076H21.3429H21.3783H21.4138H21.4494H21.4852H21.521H21.5569H21.593H21.6291H21.6654H21.7018H21.7382H21.7748H21.8114H21.8482H21.885H21.922H21.959H21.9962H22.0334H22.0708H22.1082H22.1457H22.1833H22.221H22.2587H22.2966H22.3345H22.3726H22.4107H22.4489H22.4871H22.5255H22.5639H22.6024H22.641H22.6797H22.7184H22.7572H22.7961H22.8351H22.8741H22.9132H22.9523H22.9916H23.0309H23.0702H23.1096H23.1491H23.1887H23.2283H23.268H23.3077H23.3475H23.3873H23.4272H23.4672H23.5072H23.5472H23.5873H23.6275H23.6677H23.708H23.7483H23.7886H23.829H23.8695H23.91H23.9505H23.991H24.0317H24.0723H24.113H24.1537H24.1945H24.2353H24.2761H24.3169H24.3578H24.3988H24.4397H24.4807H24.5217H24.5627H24.6038H24.6449H24.686H24.7271H24.7683H24.8094H24.8506H24.8918H24.9331H24.9743H25.0156H25.0568H25.0981H25.1394H25.1807H25.222H25.2634H25.3047H25.346H25.3874H25.4287H25.4701H25.5114H25.5528H25.5941H25.6355H25.6769H25.7182H25.7596H25.8009H25.8422H25.8836H25.9249H25.9662H26.0075H26.0488H26.0901H26.1314H26.1726H26.2138H26.2551H26.2963H26.3375H26.3786H26.4198H26.4609H26.502H26.5431H26.5841H26.6252H26.6662H26.7071H26.7481H26.789H26.8299H26.8707H26.9116H26.9523H26.9931H27.0338H27.0745H27.1151H27.1557H27.1963H27.2368H27.2773H27.3177H27.3581H27.3984H27.4387H27.479H27.5192H27.5593H27.5994H27.6395H27.6795H27.7194H27.7593H27.7991H27.8389H27.8786H27.9183H27.9579H27.9974H28.0369H28.0763H28.1157H28.1549H28.1942H28.2333H28.2724H28.3114H28.3503H28.3892H28.428H28.4667H28.5054H28.5439H28.5824H28.6208H28.6592H28.6974H28.7356H28.7737H28.8117H28.8496H28.8875H28.9252H28.9629H29.0005H29.038H29.0754H29.1127H29.1499H29.187H29.2241H29.261H29.2978H29.3346H29.3712H29.4077H29.4442H29.4805H29.5168H29.5529H29.5889H29.6248H29.6607H29.6964H29.732H29.7674H29.8028H29.8381H29.8732H29.9083H29.9432H29.978H30.0127H30.0472H30.0817H30.116H30.1502H30.1843H30.2183H30.2521H30.2858H30.3194H30.3528H30.3862H30.4194H30.4524H30.4854H30.5182H30.5508H30.5834H30.6157H30.648H30.6801H30.7121H30.7439H30.7756H30.8072H30.8386H30.8699H30.901H30.932H30.9628H30.9935H31.024H31.0544H31.0846H31.1147H31.1446H31.1743H31.204H31.2334H31.2627H31.2918H31.3208H31.3496H31.3783H31.4067H31.4351H31.4632H31.4912H31.519H31.5467H31.5742H31.6015H31.6286H31.6556H31.6824H31.709H31.7355H31.7617H31.7878H31.8137H31.8394H31.865H31.8904H31.9155H31.9405H31.9654H31.99H32.0144H32.0387H32.0627H32.0866H32.1103H32.1338H32.1571H32.1802H32.2031H32.2258H32.2483H32.2706H32.2927H32.3146H32.3363H32.3579H32.3792H32.4002H32.4211H32.4418H32.4623H32.4826H32.5026H32.5225H32.5421H32.5615H32.5807H32.5997H32.6185H32.637H32.6554H32.6735H32.6914H32.709H32.7265H32.7437H32.7607H32.7775H32.7941H32.8104H32.8265H32.8423H32.858H32.8734H32.8885H32.9035H32.9181H32.9326H32.9468H32.9608H32.9746H32.9881H33.0013H33.0143H33.0271H33.0396H33.0519H33.064H33.0758H33.0873H33.0986H33.1096H33.1204H33.131H33.1412H33.1513H33.161H33.1706H33.1798H33.1888H33.1975H33.206H33.2142H33.2222H33.2299H33.2373H33.2444H33.2513H33.2579H33.2643H33.2703H33.2761H33.2817H33.2869H33.2919H33.2966H33.301H33.3052H33.3091H33.3126H33.316H33.319H33.3217H33.3242H33.3264H33.3282H33.3298H33.3312H33.3322H33.3329H33.3333C33.3334 12.0667 33.3334 12.0667 33.3335 12.0667C34.0918 12.0667 34.727 12.2592 35.2372 12.5993C35.741 12.9352 36.0644 13.3759 36.2696 13.7862C36.4728 14.1926 36.5694 14.5868 36.6168 14.8711C36.6408 15.0156 36.6533 15.1382 36.6597 15.2286C36.663 15.2739 36.6647 15.3117 36.6657 15.3405C36.6662 15.355 36.6665 15.3673 36.6666 15.3772L36.6668 15.3904L36.6668 15.3957L36.6668 15.398L36.6668 15.3991C36.6668 15.3996 36.6668 15.4001 35.6668 15.4001H36.6668V18.9001C36.6668 19.4523 36.2191 19.9001 35.6668 19.9001H32.0002V34.0667H31.0002C32.0002 34.0667 32.0002 34.0672 32.0002 34.0677L32.0002 34.0688L32.0002 34.0711L32.0001 34.0764L32 34.0896C31.9999 34.0946 31.9998 34.1002 31.9996 34.1064C31.9995 34.1125 31.9993 34.1191 31.999 34.1263C31.9981 34.1551 31.9963 34.1929 31.9931 34.2382C31.9866 34.3286 31.9742 34.4512 31.9501 34.5957C31.9027 34.88 31.8061 35.2742 31.6029 35.6806C31.3978 36.0909 31.0744 36.5316 30.5705 36.8675C30.0604 37.2076 29.4251 37.4001 28.6668 37.4001H28.6531H28.6392H28.6251H28.6109H28.5965H28.5819H28.5672H28.5524H28.5374H28.5222H28.5069H28.4914H28.4758H28.46H28.4441H28.428H28.4118H28.3954H28.3789H28.3622H28.3454H28.3284H28.3113H28.294H28.2766H28.259H28.2413H28.2235H28.2055H28.1874H28.1691H28.1507H28.1322H28.1135H28.0947H28.0757H28.0566H28.0373H28.018H27.9985H27.9788H27.959H27.9391H27.9191H27.8989H27.8786H27.8581H27.8375H27.8168H27.796H27.775H27.7539H27.7327H27.7114H27.6899H27.6683H27.6466H27.6247H27.6028H27.5807H27.5584H27.5361H27.5136H27.491H27.4683H27.4455H27.4226H27.3995H27.3763H27.353H27.3296H27.3061H27.2825H27.2587H27.2348H27.2108H27.1868H27.1625H27.1382H27.1138H27.0892H27.0646H27.0398H27.015H26.99H26.9649H26.9397H26.9144H26.889H26.8635H26.8379H26.8122H26.7864H26.7605H26.7345H26.7083H26.6821H26.6558H26.6294H26.6029H26.5763H26.5495H26.5227H26.4958H26.4688H26.4417H26.4146H26.3873H26.3599H26.3324H26.3049H26.2772H26.2495H26.2217H26.1938H26.1658H26.1377H26.1095H26.0812H26.0529H26.0245H25.9959H25.9673H25.9386H25.9099H25.881H25.8521H25.8231H25.794H25.7648H25.7356H25.7062H25.6768H25.6473H25.6178H25.5881H25.5584H25.5287H25.4988H25.4689H25.4389H25.4088H25.3786H25.3484H25.3181H25.2878H25.2573H25.2268H25.1963H25.1656H25.1349H25.1042H25.0734H25.0425H25.0115H24.9805H24.9494H24.9183H24.8871H24.8558H24.8245H24.7931H24.7616H24.7301H24.6986H24.667H24.6353H24.6036H24.5718H24.5399H24.508H24.4761H24.4441H24.4121H24.38H24.3478H24.3156H24.2833H24.251H24.2187H24.1863H24.1539H24.1214H24.0888H24.0563H24.0236H23.991H23.9583H23.9255H23.8927H23.8599H23.827H23.7941H23.7611H23.7281H23.6951H23.662H23.6289H23.5958H23.5626H23.5294H23.4961H23.4628H23.4295H23.3962H23.3628H23.3294H23.2959H23.2624H23.2289H23.1954H23.1619H23.1283H23.0946H23.061H23.0273H22.9937H22.9599H22.9262H22.8924H22.8586H22.8248H22.791H22.7572H22.7233H22.6894H22.6555H22.6216H22.5876H22.5537H22.5197H22.4857H22.4517H22.4177H22.3836H22.3496H22.3155H22.2815H22.2474H22.2133H22.1792H22.1451H22.1109H22.0768H22.0427H22.0085H21.9744H21.9402H21.9061H21.8719H21.8377H21.8035H21.7694H21.7352H21.701H21.6668H21.6327H21.5985H21.5643H21.5301H21.4959H21.4618H21.4276H21.3934H21.3593H21.3251H21.291H21.2569H21.2227H21.1886H21.1545H21.1204H21.0863H21.0522H21.0181H20.9841H20.95H20.916H20.882H20.848H20.814H20.78H20.746H20.7121H20.6782H20.6443H20.6104H20.5765H20.5426H20.5088H20.475H20.4412H20.4075H20.3737H20.34H20.3063H20.2727H20.239H20.2054H20.1718H20.1382H20.1047H20.0712H20.0377H20.0043H19.9709H19.9375H19.9042H19.8708H19.8376H19.8043H19.7711H19.7379H19.7048H19.6717H19.6386H19.6055H19.5725H19.5396H19.5067H19.4738H19.441H19.4082H19.3754H19.3427H19.31H19.2774H19.2448H19.2123H19.1798H19.1474H19.115H19.0826H19.0503H19.0181H18.9859H18.9537H18.9216H18.8896H18.8576H18.8256H18.7937H18.7619H18.7301H18.6984H18.6667H18.6351H18.6035H18.572H18.5406H18.5092H18.4779H18.4466H18.4154H18.3843H18.3532H18.3222H18.2912H18.2603H18.2295H18.1987H18.168H18.1374H18.1068H18.0763H18.0459H18.0155H17.9852H17.955H17.9249H17.8948H17.8648H17.8349H17.805H17.7752H17.7455H17.7159H17.6863H17.6568H17.6274H17.5981H17.5688H17.5397H17.5106H17.4816H17.4526H17.4238H17.395H17.3663H17.3377H17.3092H17.2808H17.2524H17.2242H17.196H17.1679H17.1399H17.112H17.0842H17.0564H17.0288H17.0012H16.9738H16.9464H16.9191H16.8919H16.8648H16.8378H16.8109H16.7841H16.7574H16.7308H16.7043H16.6779H16.6515H16.6253H16.5992H16.5732H16.5473H16.5215H16.4957H16.4701H16.4446H16.4192H16.3939H16.3687H16.3437H16.3187H16.2938H16.2691H16.2444H16.2199H16.1954H16.1711H16.1469H16.1228H16.0988H16.075H16.0512H16.0276H16.004H15.9806H15.9573H15.9341H15.9111H15.8881H15.8653H15.8426H15.82H15.7976H15.7752H15.753H15.7309H15.7089H15.6871H15.6654H15.6438H15.6223H15.6009H15.5797H15.5586H15.5377H15.5168H15.4961H15.4755H15.4551H15.4348H15.4146H15.3945H15.3746H15.3548H15.3352H15.3157H15.2963H15.2771H15.258H15.239H15.2202H15.2015H15.1829H15.1645H15.1463H15.1281H15.1102H15.0923H15.0746H15.0571H15.0397H15.0224H15.0053H14.9883H14.9715H14.9548H14.9383H14.9219H14.9057H14.8896H14.8737H14.8579H14.8422H14.8268H14.8115H14.7963H14.7813H14.7664H14.7517H14.7372H14.7228H14.7086H14.6945H14.6806H14.6668C13.9085 37.4001 13.2733 37.2076 12.7632 36.8675C12.2593 36.5316 11.9359 36.0909 11.7307 35.6806C11.5275 35.2742 11.4309 34.88 11.3836 34.5957C11.3595 34.4512 11.3471 34.3286 11.3406 34.2382C11.3374 34.1929 11.3356 34.1551 11.3346 34.1263C11.3341 34.1118 11.3339 34.0995 11.3337 34.0896L11.3335 34.0764L11.3335 34.0711L11.3335 34.0688L11.3335 34.0677C11.3335 34.0672 11.3335 34.0667 12.3335 34.0667H11.3335V30.5667C11.3335 30.0144 11.7812 29.5667 12.3335 29.5667H14.8335ZM33.3335 14.0667C33.7418 14.0667 33.9816 14.1659 34.1278 14.2634C34.2801 14.365 34.3942 14.5076 34.4807 14.6806C34.5692 14.8576 34.6184 15.0466 34.644 15.1999C34.6564 15.2741 34.6622 15.3338 34.6648 15.3711C34.6661 15.3895 34.6666 15.4019 34.6668 15.4072L34.6668 15.4076V17.9001H32.0002V15.4076L32.0002 15.4072C32.0004 15.4019 32.0009 15.3895 32.0022 15.3711C32.0048 15.3338 32.0106 15.2741 32.023 15.1999C32.0486 15.0466 32.0978 14.8576 32.1863 14.6806C32.2728 14.5076 32.3869 14.365 32.5392 14.2634C32.6854 14.1659 32.9251 14.0667 33.3335 14.0667ZM25.3836 34.5957C25.4199 34.8138 25.4852 35.0967 25.6055 35.4001H25.5881H25.5584H25.5287H25.4988H25.4689H25.4389H25.4088H25.3786H25.3484H25.3181H25.2878H25.2573H25.2268H25.1963H25.1656H25.1349H25.1042H25.0734H25.0425H25.0115H24.9805H24.9494H24.9183H24.8871H24.8558H24.8245H24.7931H24.7616H24.7301H24.6986H24.667H24.6353H24.6036H24.5718H24.5399H24.508H24.4761H24.4441H24.4121H24.38H24.3478H24.3156H24.2833H24.251H24.2187H24.1863H24.1539H24.1214H24.0888H24.0563H24.0236H23.991H23.9583H23.9255H23.8927H23.8599H23.827H23.7941H23.7611H23.7281H23.6951H23.662H23.6289H23.5958H23.5626H23.5294H23.4961H23.4628H23.4295H23.3962H23.3628H23.3294H23.2959H23.2624H23.2289H23.1954H23.1619H23.1283H23.0946H23.061H23.0273H22.9937H22.9599H22.9262H22.8924H22.8586H22.8248H22.791H22.7572H22.7233H22.6894H22.6555H22.6216H22.5876H22.5537H22.5197H22.4857H22.4517H22.4177H22.3836H22.3496H22.3155H22.2815H22.2474H22.2133H22.1792H22.1451H22.1109H22.0768H22.0427H22.0085H21.9744H21.9402H21.9061H21.8719H21.8377H21.8035H21.7694H21.7352H21.701H21.6668H21.6327H21.5985H21.5643H21.5301H21.4959H21.4618H21.4276H21.3934H21.3593H21.3251H21.291H21.2569H21.2227H21.1886H21.1545H21.1204H21.0863H21.0522H21.0181H20.9841H20.95H20.916H20.882H20.848H20.814H20.78H20.746H20.7121H20.6782H20.6443H20.6104H20.5765H20.5426H20.5088H20.475H20.4412H20.4075H20.3737H20.34H20.3063H20.2727H20.239H20.2054H20.1718H20.1382H20.1047H20.0712H20.0377H20.0043H19.9709H19.9375H19.9042H19.8708H19.8376H19.8043H19.7711H19.7379H19.7048H19.6717H19.6386H19.6055H19.5725H19.5396H19.5067H19.4738H19.441H19.4082H19.3754H19.3427H19.31H19.2774H19.2448H19.2123H19.1798H19.1474H19.115H19.0826H19.0503H19.0181H18.9859H18.9537H18.9216H18.8896H18.8576H18.8256H18.7937H18.7619H18.7301H18.6984H18.6667H18.6351H18.6035H18.572H18.5406H18.5092H18.4779H18.4466H18.4154H18.3843H18.3532H18.3222H18.2912H18.2603H18.2295H18.1987H18.168H18.1374H18.1068H18.0763H18.0459H18.0155H17.9852H17.955H17.9249H17.8948H17.8648H17.8349H17.805H17.7752H17.7455H17.7159H17.6863H17.6568H17.6274H17.5981H17.5688H17.5397H17.5106H17.4816H17.4526H17.4238H17.395H17.3663H17.3377H17.3092H17.2808H17.2524H17.2242H17.196H17.1679H17.1399H17.112H17.0842H17.0564H17.0288H17.0012H16.9738H16.9464H16.9191H16.8919H16.8648H16.8378H16.8109H16.7841H16.7574H16.7308H16.7043H16.6779H16.6515H16.6253H16.5992H16.5732H16.5473H16.5215H16.4957H16.4701H16.4446H16.4192H16.3939H16.3687H16.3437H16.3187H16.2938H16.2691H16.2444H16.2199H16.1954H16.1711H16.1469H16.1228H16.0988H16.075H16.0512H16.0276H16.004H15.9806H15.9573H15.9341H15.9111H15.8881H15.8653H15.8426H15.82H15.7976H15.7752H15.753H15.7309H15.7089H15.6871H15.6654H15.6438H15.6223H15.6009H15.5797H15.5586H15.5377H15.5168H15.4961H15.4755H15.4551H15.4348H15.4146H15.3945H15.3746H15.3548H15.3352H15.3157H15.2963H15.2771H15.258H15.239H15.2202H15.2015H15.1829H15.1645H15.1463H15.1281H15.1102H15.0923H15.0746H15.0571H15.0397H15.0224H15.0053H14.9883H14.9715H14.9548H14.9383H14.9219H14.9057H14.8896H14.8737H14.8579H14.8422H14.8268H14.8115H14.7963H14.7813H14.7664H14.7517H14.7372H14.7228H14.7086H14.6945H14.6806H14.6668C14.2585 35.4001 14.0187 35.3009 13.8726 35.2034C13.7202 35.1018 13.6061 34.9592 13.5196 34.7862C13.4311 34.6092 13.3819 34.4202 13.3563 34.2669C13.344 34.1927 13.3382 34.133 13.3355 34.0957C13.3342 34.0773 13.3337 34.0649 13.3335 34.0596L13.3335 34.0592V31.5667H25.3335V34.0667H26.3335C25.3335 34.0667 25.3335 34.0672 25.3335 34.0677L25.3335 34.0688L25.3335 34.0711L25.3335 34.0764L25.3337 34.0896C25.3339 34.0995 25.3341 34.1118 25.3346 34.1263C25.3356 34.1551 25.3374 34.1929 25.3406 34.2382C25.3471 34.3286 25.3595 34.4512 25.3836 34.5957Z" fill="#41A6E8"/>
<path d="M20.5 20.0667H26.3333" stroke="#41A6E8" stroke-width="2" stroke-linecap="round" stroke-linejoin="round"/>
<path d="M20.5 24.7334H26.3333" stroke="#41A6E8" stroke-width="2" stroke-linecap="round" stroke-linejoin="round"/>
</svg>
