<svg width="20" height="20" viewBox="0 0 20 20" fill="none" xmlns="http://www.w3.org/2000/svg">
<path d="M11.3021 14.2923L10.5972 14.036L10.5972 14.0361L11.3021 14.2923ZM10.4621 14.3053L11.1588 14.0277L11.1584 14.0267L10.4621 14.3053ZM9.10007 10.9003L9.79643 10.6217L9.67703 10.3233L9.37854 10.2039L9.10007 10.9003ZM5.69407 9.53829L5.4149 10.2344L5.4156 10.2347L5.69407 9.53829ZM5.70707 8.69729L5.96323 9.40219L5.96341 9.40213L5.70707 8.69729ZM13.5931 5.82929L13.3377 5.1241L13.3367 5.12446L13.5931 5.82929ZM13.4652 6.14996L10.5972 14.036L12.0069 14.5486L14.8749 6.66263L13.4652 6.14996ZM10.5972 14.0361C10.691 13.7779 11.0561 13.7699 11.1588 14.0277L9.76534 14.5829C10.174 15.6087 11.6311 15.5827 12.007 14.5485L10.5972 14.0361ZM11.1584 14.0267L9.79643 10.6217L8.40371 11.1788L9.76571 14.5838L11.1584 14.0267ZM9.37854 10.2039L5.97254 8.84191L5.4156 10.2347L8.8216 11.5967L9.37854 10.2039ZM5.97324 8.84218C6.22673 8.94384 6.22372 9.30753 5.96323 9.40219L5.45091 7.99239C4.41442 8.36906 4.39341 9.82474 5.4149 10.2344L5.97324 8.84218ZM5.96341 9.40213L13.8494 6.53413L13.3367 5.12446L5.45073 7.99246L5.96341 9.40213ZM13.8484 6.53448C13.6126 6.61987 13.3768 6.39233 13.4655 6.1492L14.8746 6.66339C15.2253 5.70225 14.2915 4.77872 13.3377 5.1241L13.8484 6.53448ZM10 0.25C4.61479 0.25 0.25 4.61479 0.25 10H1.75C1.75 5.44321 5.44321 1.75 10 1.75V0.25ZM0.25 10C0.25 15.3842 4.61473 19.75 10 19.75V18.25C5.44327 18.25 1.75 14.5558 1.75 10H0.25ZM10 19.75C15.3842 19.75 19.75 15.3842 19.75 10H18.25C18.25 14.5558 14.5558 18.25 10 18.25V19.75ZM19.75 10C19.75 4.61473 15.3842 0.25 10 0.25V1.75C14.5558 1.75 18.25 5.44327 18.25 10H19.75Z" fill="white"/>
</svg>
