<svg width="48" height="49" viewBox="0 0 48 49" fill="none" xmlns="http://www.w3.org/2000/svg">
<rect y="0.353516" width="48" height="48" rx="10" fill="#5A1E61"/>
<path d="M24.0007 35.6654C17.5573 35.6654 12.334 30.442 12.334 23.9987C12.334 17.5554 17.5573 12.332 24.0007 12.332C30.444 12.332 35.6673 17.5554 35.6673 23.9987C35.6602 30.4391 30.441 35.6583 24.0007 35.6654ZM14.6673 24.1994C14.7225 29.3341 18.9153 33.4598 24.0503 33.4324C29.1853 33.4046 33.3334 29.2341 33.3334 24.099C33.3334 18.964 29.1853 14.7934 24.0503 14.7657C18.9153 14.7382 14.7225 18.8639 14.6673 23.9987V24.1994ZM21.6673 29.2487V18.7487L28.6673 23.9987L21.6673 29.2487Z" fill="#D345E4"/>
</svg>
