<svg width="118" height="18" viewBox="0 0 118 18" fill="none" xmlns="http://www.w3.org/2000/svg">
<path d="M1.80488 4.32927C2.9187 4.32927 3.47561 3.76016 3.47561 2.62195C3.47561 1.49187 2.89024 0.934959 1.71951 0.951219C0.573171 0.98374 0 1.54878 0 2.64634C0 3.80081 0.601626 4.36179 1.80488 4.32927ZM8.90244 9.54878L14.8537 2.07317C15.0813 1.29268 14.8049 0.926829 14.0244 0.97561H13.1707C12.6098 0.97561 11.8943 1.25203 11.0244 1.80488L5.47561 9.12195V16.2195C5.44309 17.3577 6.00813 17.9268 7.17073 17.9268C8.35772 17.9268 8.94309 17.3699 8.92683 16.2561L8.90244 9.54878ZM26.4806 11.122C25.3749 11.122 24.8221 10.5569 24.8221 9.42683C24.8221 8.28862 25.3993 7.73171 26.5538 7.7561C27.7001 7.78862 28.2733 8.35366 28.2733 9.45122C28.2733 10.5976 27.6757 11.1545 26.4806 11.122ZM33.0781 14.5244C34.0456 14.5244 34.5294 15.0894 34.5294 16.2195C34.5294 17.3577 34.0131 17.9268 32.9806 17.9268H19.4318C18.2123 17.9268 17.6025 17.2683 17.6025 15.9512V2.92683C17.6025 1.5935 18.1838 0.926829 19.3464 0.926829H33.0781C34.0456 0.910569 34.5294 1.46748 34.5294 2.59756C34.5294 3.75203 34.0538 4.31301 33.1025 4.28049H22.005C21.3383 4.32927 21.005 4.72764 21.005 5.47561V13.2805C21.005 14.1098 21.3383 14.5244 22.005 14.5244H33.0781ZM38.9875 4.32927C40.1013 4.32927 40.6582 3.76016 40.6582 2.62195C40.6582 1.49187 40.0729 0.934959 38.9021 0.951219C37.7558 0.98374 37.1826 1.54878 37.1826 2.64634C37.1826 3.80081 37.7842 4.36179 38.9875 4.32927ZM46.1094 5.57317C46.1582 4.76016 46.5403 4.32927 47.2558 4.28049H51.4875C52.4306 4.31301 52.9021 3.75203 52.9021 2.59756C52.9021 1.45122 52.4103 0.894309 51.4265 0.926829H44.1826C43.2477 0.959349 42.7558 1.48374 42.707 2.5V16.2561C42.6907 17.3699 43.2558 17.9268 44.4021 17.9268C45.5891 17.9268 46.1582 17.378 46.1094 16.2805V5.57317ZM55.5664 2.64634C55.5664 1.54878 56.1396 0.98374 57.2859 0.951219C58.4567 0.934959 59.0176 1.5 58.9688 2.64634V16.2195C59.0176 17.374 58.4567 17.9431 57.2859 17.9268C56.1396 17.9268 55.5664 17.3577 55.5664 16.2195V2.64634ZM70.1699 11.122C71.2675 11.122 71.8162 10.5569 71.8162 9.42683C71.8162 8.28862 71.2431 7.73171 70.0967 7.7561C68.9423 7.78862 68.365 8.35366 68.365 9.45122C68.365 10.5976 68.9666 11.1545 70.1699 11.122ZM77.1211 14.5244H66.365C65.487 14.5569 65.0479 14 65.0479 12.8537V2.64634C65.0967 1.5 64.5358 0.934959 63.365 0.951219C62.2187 0.98374 61.6455 1.54878 61.6455 2.64634V15.8049C61.6455 17.2195 62.2797 17.935 63.5479 17.9512H77.0236C78.0561 17.9512 78.5723 17.374 78.5723 16.2195C78.5723 15.0894 78.0886 14.5244 77.1211 14.5244ZM89.5305 14.2805C90.628 14.2805 91.1768 14.8455 91.1768 15.9756C91.1768 17.122 90.5996 17.6789 89.4451 17.6463C88.2988 17.6463 87.7256 17.0813 87.7256 15.9512C87.7256 14.8211 88.3272 14.2642 89.5305 14.2805ZM90.0305 6.17073C89.6565 5.00813 89.2703 5.00813 88.8719 6.17073L84.6768 17.1463C84.4736 17.6504 84.1321 17.9187 83.6524 17.9512H81.9207C81.2866 17.9187 81.0955 17.5203 81.3475 16.7561L87.2256 1.90244C87.5914 1.25203 88.3313 0.926829 89.4451 0.926829C90.5508 0.926829 91.2784 1.27642 91.628 1.97561L97.6524 16.8293C97.8638 17.5285 97.6727 17.8943 97.0792 17.9268L95.3475 17.9512C94.8516 17.9187 94.502 17.6504 94.2988 17.1463L90.0305 6.17073ZM108.488 11.122C109.61 11.122 110.171 10.5569 110.171 9.42683C110.171 8.28862 109.586 7.73171 108.415 7.7561C107.269 7.78862 106.696 8.35366 106.696 9.45122C106.696 10.5976 107.293 11.1545 108.488 11.122ZM111.988 9.45122V11.122C112.956 11.122 113.565 11.3902 113.817 11.9268C113.866 12.0569 113.907 12.1951 113.939 12.3415C113.972 12.4797 113.988 12.6423 113.988 12.8293C113.988 13.2764 113.915 13.5976 113.769 13.7927C113.63 13.9797 113.346 14.1423 112.915 14.2805C112.785 14.313 112.61 14.3415 112.391 14.3659C112.171 14.3902 111.785 14.4065 111.232 14.4146C110.687 14.4228 109.915 14.4309 108.915 14.439C107.915 14.4472 106.565 14.4512 104.866 14.4512C104.151 14.4512 103.793 14.1098 103.793 13.4268V5.47561C103.793 4.71138 104.151 4.32927 104.866 4.32927H110.513C111.082 4.34553 111.561 4.37398 111.952 4.41463C112.342 4.45528 112.663 4.51626 112.915 4.59756C113.346 4.73577 113.63 4.9065 113.769 5.10976C113.915 5.30488 113.988 5.61789 113.988 6.04878C113.988 6.44715 113.931 6.7561 113.817 6.97561C113.565 7.49594 112.956 7.7561 111.988 7.7561V9.45122ZM117.317 12.8537C117.236 11.0488 116.435 9.97154 114.915 9.62195C116.452 9.23984 117.269 8.04878 117.366 6.04878C117.366 5.01626 117.098 4.08537 116.561 3.2561C115.464 1.71951 113.456 0.943089 110.537 0.926829H102.293C101.025 0.943089 100.391 1.65854 100.391 3.07317V16.0976C100.391 17.3171 101 17.9268 102.22 17.9268H110.513C113.448 17.9268 115.464 17.1585 116.561 15.622C117.082 14.8252 117.334 13.9024 117.317 12.8537Z" fill="white"/>
</svg>
